<?xml version="1.0" standalone="no"?>
<!DOCTYPE svg PUBLIC "-//W3C//DTD SVG 20010904//EN"
        "http://www.w3.org/TR/2001/REC-SVG-20010904/DTD/svg10.dtd">
<svg version="1.0" xmlns="http://www.w3.org/2000/svg"
     width="393.000000pt" height="221.000000pt" viewBox="0 0 393.000000 221.000000"
     preserveAspectRatio="xMidYMid meet">
    <metadata>
        Created by potrace 1.15, written by Peter Selinger 2001-2017
    </metadata>
    <g transform="translate(0.000000,221.000000) scale(0.100000,-0.100000)"
       fill="#000000" stroke="none">
        <path d="M1025 2051 c-141 -36 -238 -78 -341 -146 -151 -101 -257 -238 -337
-437 l-42 -103 -3 -237 c-4 -269 1 -299 68 -453 84 -189 245 -348 436 -428 57
-24 256 -87 275 -87 22 0 4 27 -60 94 -91 94 -143 177 -174 278 -75 239 -92
529 -51 874 19 161 53 293 102 390 53 105 103 165 185 221 60 42 81 64 60 63
-5 -1 -57 -14 -118 -29z"/>
        <path d="M1460 2061 c0 -6 4 -11 9 -11 19 0 191 -181 222 -236 80 -135 98
-225 109 -534 12 -333 38 -461 125 -627 117 -222 274 -354 548 -460 127 -49
134 -42 55 46 -96 106 -162 238 -192 382 -8 41 -20 164 -26 274 -19 360 -54
552 -126 705 -69 147 -199 287 -327 351 -131 67 -397 140 -397 110z"/>
        <path d="M2560 2030 c-67 -12 -137 -38 -210 -77 -76 -41 -209 -134 -210 -146
0 -5 23 -34 51 -65 43 -49 97 -144 136 -242 9 -22 13 -14 42 80 18 58 49 137
69 175 45 88 145 189 230 233 34 18 62 37 62 43 0 11 -105 10 -170 -1z" fill="red"/>
        <path d="M3200 1990 c0 -5 14 -25 31 -45 18 -20 30 -37 28 -39 -2 -2 -23 -13
-46 -25 -50 -25 -86 -70 -103 -128 -28 -92 38 -199 137 -222 170 -41 291 146
198 305 -30 51 -79 91 -162 133 -66 33 -83 37 -83 21z" fill="red"/>
        <path d="M1786 666 c-26 -136 -91 -257 -207 -382 -85 -91 -115 -131 -107 -140
8 -7 149 24 243 53 104 32 192 81 261 146 l55 52 -48 55 c-56 63 -97 122 -138
198 -15 28 -34 52 -40 52 -7 0 -16 -15 -19 -34z"/>
        <path d="M3205 588 c-95 -52 -133 -173 -82 -263 20 -35 39 -52 103 -91 20 -12
20 -12 -18 -74 -21 -34 1 -35 68 -2 79 39 151 103 175 157 47 103 0 239 -94
274 -37 14 -126 14 -152 -1z" fill="red"/>
    </g>
</svg>
