<svg id="svg" version="1.1" xmlns="http://www.w3.org/2000/svg" width="400" height="400" viewBox="0, 0, 400,400">
    <g id="svgg">
        <path id="path0"
              d="M202.264 36.762 C 169.541 38.594,139.899 47.294,113.307 62.871 L 110.634 64.436 107.714 64.054 C 73.572 59.582,36.617 70.580,18.698 90.546 C -0.976 112.467,-3.934 145.061,11.846 166.028 L 13.316 167.980 13.334 208.025 C 13.344 230.859,13.451 247.840,13.582 247.537 C 13.709 247.244,13.906 246.525,14.020 245.939 L 14.227 244.874 14.370 246.308 C 14.492 247.519,15.519 242.520,20.990 214.084 C 24.553 195.572,27.513 180.281,27.569 180.104 C 27.637 179.889,28.589 180.219,30.414 181.090 C 37.939 184.682,45.112 186.152,55.116 186.152 L 60.186 186.152 60.186 185.143 C 60.186 177.857,54.230 172.897,44.796 172.328 C 26.161 171.203,11.751 158.819,8.894 141.475 C 8.294 137.833,8.651 127.080,9.396 126.334 C 9.729 126.001,44.457 128.823,55.842 130.108 C 71.034 131.824,79.812 134.353,89.099 139.691 C 133.578 165.256,134.566 227.797,90.945 256.533 C 83.638 261.346,76.326 264.323,64.647 267.240 C 60.826 268.194,57.656 269.020,57.601 269.074 C 56.959 269.716,60.343 278.324,64.315 286.152 C 100.658 357.771,178.938 395.802,257.523 380.020 C 318.476 367.779,361.021 332.892,383.695 276.559 C 410.441 210.109,398.964 146.740,350.637 94.028 C 315.493 55.695,258.307 33.623,202.264 36.762 M244.018 65.794 C 304.356 69.495,355.733 109.404,374.407 167.080 C 395.689 232.807,364.042 307.650,301.770 338.864 C 300.400 339.551,299.230 340.064,299.170 340.004 C 299.110 339.945,300.441 320.325,302.127 296.405 C 303.813 272.486,305.193 252.514,305.193 252.024 L 305.193 251.132 302.143 251.132 L 299.092 251.132 298.955 251.997 C 298.880 252.473,298.269 259.874,297.597 268.442 C 296.925 277.011,296.254 284.920,296.105 286.019 C 293.546 304.954,282.971 314.950,262.450 317.831 C 255.600 318.793,253.864 318.849,227.313 318.966 L 200.698 319.084 201.898 317.664 C 204.365 314.748,205.840 312.094,206.998 308.490 L 207.586 306.658 207.735 212.117 C 207.875 123.750,207.915 117.429,208.347 115.322 C 210.511 104.774,215.423 101.032,227.497 100.734 L 232.756 100.604 232.756 99.198 C 232.756 97.526,232.667 97.470,229.997 97.470 C 220.452 97.470,195.510 90.888,173.026 82.435 L 171.484 81.856 176.754 79.296 C 198.378 68.792,220.502 64.351,244.018 65.794 M99.068 77.891 C 115.278 79.321,132.409 82.364,166.578 89.883 C 186.181 94.196,199.211 96.816,207.590 98.127 C 210.959 98.655,214.134 99.157,214.647 99.243 C 215.506 99.387,215.393 99.449,213.200 100.039 C 198.110 104.096,187.136 115.339,183.677 130.286 L 183.106 132.756 182.964 222.237 L 182.822 311.718 182.239 313.760 C 180.308 320.536,178.208 321.462,164.381 321.634 L 155.260 321.747 155.260 323.324 L 155.260 324.900 212.184 324.870 C 295.886 324.827,293.156 324.897,295.951 322.701 C 297.256 321.675,297.201 320.888,296.510 330.626 C 295.717 341.810,295.673 340.610,296.871 340.625 L 297.870 340.637 296.647 341.274 C 294.322 342.486,286.796 345.428,281.690 347.122 C 225.298 365.832,164.102 348.670,126.479 303.595 C 119.177 294.847,111.058 281.696,107.585 272.990 L 107.221 272.079 109.336 270.083 C 110.500 268.985,114.987 264.912,119.308 261.032 C 143.373 239.422,151.020 228.115,154.994 208.268 C 161.110 177.719,150.532 148.704,127.804 133.683 C 110.262 122.089,91.390 119.391,27.164 119.294 C 18.302 119.281,10.850 119.189,10.603 119.089 C 10.201 118.927,10.263 118.617,11.192 116.159 C 19.343 94.575,42.228 80.416,73.236 77.772 C 75.067 77.616,77.104 77.442,77.763 77.385 C 80.362 77.163,94.667 77.503,99.068 77.891 "
              stroke="none" fill="#b2893d" fill-rule="evenodd"></path>
        <path id="path1"
              d="M0.000 200.000 L 0.000 400.000 200.000 400.000 L 400.000 400.000 400.000 200.000 L 400.000 0.000 200.000 0.000 L 0.000 0.000 0.000 200.000 M228.229 37.149 C 300.466 43.121,359.534 84.790,386.032 148.469 C 406.842 198.480,399.197 260.503,366.090 310.253 C 335.403 356.368,282.257 383.347,222.104 383.347 C 154.747 383.347,94.943 346.508,64.315 286.152 C 60.343 278.324,56.959 269.716,57.601 269.074 C 57.656 269.020,60.826 268.194,64.647 267.240 C 76.326 264.323,83.638 261.346,90.945 256.533 C 134.566 227.797,133.578 165.256,89.099 139.691 C 79.812 134.353,71.034 131.824,55.842 130.108 C 44.457 128.823,9.729 126.001,9.396 126.334 C 8.651 127.080,8.294 137.833,8.894 141.475 C 11.751 158.819,26.161 171.203,44.796 172.328 C 54.230 172.897,60.186 177.857,60.186 185.143 L 60.186 186.152 55.116 186.152 C 45.112 186.152,37.939 184.682,30.414 181.090 C 28.589 180.219,27.637 179.889,27.569 180.104 C 27.513 180.281,24.553 195.572,20.990 214.084 C 15.519 242.520,14.492 247.519,14.370 246.308 L 14.227 244.874 14.020 245.939 C 13.906 246.525,13.709 247.244,13.582 247.537 C 13.451 247.840,13.344 230.859,13.334 208.025 L 13.316 167.980 11.846 166.028 C -3.934 145.061,-0.976 112.467,18.698 90.546 C 36.617 70.580,73.572 59.582,107.714 64.054 L 110.634 64.436 113.307 62.871 C 147.062 43.098,188.367 33.853,228.229 37.149 M228.096 65.696 C 210.927 66.581,193.339 71.240,176.754 79.296 L 171.484 81.856 173.026 82.435 C 195.510 90.888,220.452 97.470,229.997 97.470 C 232.667 97.470,232.756 97.526,232.756 99.198 L 232.756 100.604 227.497 100.734 C 215.423 101.032,210.511 104.774,208.347 115.322 C 207.915 117.429,207.875 123.750,207.735 212.117 L 207.586 306.658 206.998 308.490 C 205.840 312.094,204.365 314.748,201.898 317.664 L 200.698 319.084 227.313 318.966 C 253.864 318.849,255.600 318.793,262.450 317.831 C 282.971 314.950,293.546 304.954,296.105 286.019 C 296.254 284.920,296.925 277.011,297.597 268.442 C 298.269 259.874,298.880 252.473,298.955 251.997 L 299.092 251.132 302.143 251.132 L 305.193 251.132 305.193 252.024 C 305.193 252.514,303.813 272.486,302.127 296.405 C 300.441 320.325,299.110 339.945,299.170 340.004 C 299.230 340.064,300.400 339.551,301.770 338.864 C 364.042 307.650,395.689 232.807,374.407 167.080 C 353.952 103.904,293.915 62.303,228.096 65.696 M77.763 77.385 C 77.104 77.442,75.067 77.616,73.236 77.772 C 42.228 80.416,19.343 94.575,11.192 116.159 C 10.263 118.617,10.201 118.927,10.603 119.089 C 10.850 119.189,18.302 119.281,27.164 119.294 C 91.390 119.391,110.262 122.089,127.804 133.683 C 150.532 148.704,161.110 177.719,154.994 208.268 C 151.020 228.115,143.373 239.422,119.308 261.032 C 114.987 264.912,110.500 268.985,109.336 270.083 L 107.221 272.079 107.585 272.990 C 111.058 281.696,119.177 294.847,126.479 303.595 C 164.102 348.670,225.298 365.832,281.690 347.122 C 286.796 345.428,294.322 342.486,296.647 341.274 L 297.870 340.637 296.871 340.625 C 295.673 340.610,295.717 341.810,296.510 330.626 C 297.201 320.888,297.256 321.675,295.951 322.701 C 293.156 324.897,295.886 324.827,212.184 324.870 L 155.260 324.900 155.260 323.324 L 155.260 321.747 164.381 321.634 C 178.208 321.462,180.308 320.536,182.239 313.760 L 182.822 311.718 182.964 222.237 L 183.106 132.756 183.677 130.286 C 187.136 115.339,198.110 104.096,213.200 100.039 C 215.393 99.449,215.506 99.387,214.647 99.243 C 214.134 99.157,210.959 98.655,207.590 98.127 C 199.211 96.816,186.181 94.196,166.578 89.883 C 132.409 82.364,115.278 79.321,99.068 77.891 C 94.667 77.503,80.362 77.163,77.763 77.385 "
              stroke="none" fill="#000" fill-rule="evenodd"></path>

    </g>
</svg>
